<svg xmlns="http://www.w3.org/2000/svg" viewBox="0 0 64 64" width="64" height="64">
  <circle cx="32" cy="32" r="30" fill="#2d6a9f"/>
  <line x1="32" y1="32" x2="15" y2="20" stroke="#a8d4f5" stroke-width="2"/>
  <line x1="32" y1="32" x2="49" y2="20" stroke="#a8d4f5" stroke-width="2"/>
  <line x1="32" y1="32" x2="32" y2="50" stroke="#a8d4f5" stroke-width="2"/>
  <line x1="15" y1="20" x2="7"  y2="10" stroke="#d0eaf9" stroke-width="1.5"/>
  <line x1="15" y1="20" x2="20" y2="10" stroke="#d0eaf9" stroke-width="1.5"/>
  <line x1="49" y1="20" x2="44" y2="10" stroke="#d0eaf9" stroke-width="1.5"/>
  <line x1="49" y1="20" x2="57" y2="10" stroke="#d0eaf9" stroke-width="1.5"/>
  <line x1="32" y1="50" x2="23" y2="59" stroke="#d0eaf9" stroke-width="1.5"/>
  <line x1="32" y1="50" x2="41" y2="59" stroke="#d0eaf9" stroke-width="1.5"/>
  <circle cx="7"  cy="10" r="3" fill="#ffffff" opacity="0.7"/>
  <circle cx="20" cy="10" r="3" fill="#ffffff" opacity="0.7"/>
  <circle cx="44" cy="10" r="3" fill="#ffffff" opacity="0.7"/>
  <circle cx="57" cy="10" r="3" fill="#ffffff" opacity="0.7"/>
  <circle cx="23" cy="59" r="3" fill="#ffffff" opacity="0.7"/>
  <circle cx="41" cy="59" r="3" fill="#ffffff" opacity="0.7"/>
  <circle cx="15" cy="20" r="5" fill="#f0a500"/>
  <circle cx="49" cy="20" r="5" fill="#f0a500"/>
  <circle cx="32" cy="50" r="5" fill="#f0a500"/>
  <circle cx="32" cy="32" r="7" fill="#ffffff"/>
  <circle cx="32" cy="32" r="4" fill="#2d6a9f"/>
</svg>
